<svg xmlns="http://www.w3.org/2000/svg" viewBox="0 0 1440 320" preserveAspectRatio="none">
    <path fill="#111926" fill-opacity="1" d="M0,96L48,112C96,128,192,160,288,160C384,160,480,128,576,122.7C672,117,768,139,864,154.7C960,171,1056,181,1152,165.3C1248,149,1344,107,1392,85.3L1440,64L1440,320L1392,320C1344,320,1248,320,1152,320C1056,320,960,320,864,320C768,320,672,320,576,320C480,320,384,320,288,320C192,320,96,320,48,320L0,320Z"></path>
    <path fill="#2a3440" fill-opacity="0.9" d="M0,192L48,197.3C96,203,192,213,288,197.3C384,181,480,139,576,133.3C672,128,768,160,864,181.3C960,203,1056,213,1152,197.3C1248,181,1344,139,1392,117.3L1440,96L1440,320L1392,320C1344,320,1248,320,1152,320C1056,320,960,320,864,320C768,320,672,320,576,320C480,320,384,320,288,320C192,320,96,320,48,320L0,320Z"></path>
    <path fill="#4a5565" fill-opacity="0.7" d="M0,256L48,245.3C96,235,192,213,288,213.3C384,213,480,235,576,234.7C672,235,768,213,864,197.3C960,181,1056,171,1152,181.3C1248,192,1344,224,1392,240L1440,256L1440,320L1392,320C1344,320,1248,320,1152,320C1056,320,960,320,864,320C768,320,672,320,576,320C480,320,384,320,288,320C192,320,96,320,48,320L0,320Z"></path>
    <path fill="#6a7585" fill-opacity="0.5" d="M0,256L48,245.3C96,235,192,213,288,213.3C384,213,480,235,576,234.7C672,235,768,213,864,197.3C960,181,1056,171,1152,181.3C1248,192,1344,224,1392,240L1440,256L1440,320L1392,320C1344,320,1248,320,1152,320C1056,320,960,320,864,320C768,320,672,320,576,320C480,320,384,320,288,320C192,320,96,320,48,320L0,320Z"></path>
    <path fill="#8a95a5" fill-opacity="0.3" d="M0,256L48,245.3C96,235,192,213,288,213.3C384,213,480,235,576,234.7C672,235,768,213,864,197.3C960,181,1056,171,1152,181.3C1248,192,1344,224,1392,240L1440,256L1440,320L1392,320C1344,320,1248,320,1152,320C1056,320,960,320,864,320C768,320,672,320,576,320C480,320,384,320,288,320C192,320,96,320,48,320L0,320Z"></path>
    <path fill="#aab5c5" fill-opacity="0.2" d="M0,256L48,245.3C96,235,192,213,288,213.3C384,213,480,235,576,234.7C672,235,768,213,864,197.3C960,181,1056,171,1152,181.3C1248,192,1344,224,1392,240L1440,256L1440,320L1392,320C1344,320,1248,320,1152,320C1056,320,960,320,864,320C768,320,672,320,576,320C480,320,384,320,288,320C192,320,96,320,48,320L0,320Z"></path>
    <path fill="#cbd5e5" fill-opacity="0.1" d="M0,256L48,245.3C96,235,192,213,288,213.3C384,213,480,235,576,234.7C672,235,768,213,864,197.3C960,181,1056,171,1152,181.3C1248,192,1344,224,1392,240L1440,256L1440,320L1392,320C1344,320,1248,320,1152,320C1056,320,960,320,864,320C768,320,672,320,576,320C480,320,384,320,288,320C192,320,96,320,48,320L0,320Z"></path>
    <path fill="#f7f7f7" fill-opacity="1" d="M0,256L48,245.3C96,235,192,213,288,213.3C384,213,480,235,576,234.7C672,235,768,213,864,197.3C960,181,1056,171,1152,181.3C1248,192,1344,224,1392,240L1440,256L1440,320L1392,320C1344,320,1248,320,1152,320C1056,320,960,320,864,320C768,320,672,320,576,320C480,320,384,320,288,320C192,320,96,320,48,320L0,320Z"></path>
</svg>

