<svg width="24" height="25" viewBox="0 0 24 25" fill="none" xmlns="http://www.w3.org/2000/svg">
<path d="M18.0001 4.98C16.4088 3.3887 14.2505 2.49472 12.0001 2.49472C9.74961 2.49472 7.59135 3.3887 6.00005 4.98C4.40875 6.5713 3.51477 8.72957 3.51477 10.98C3.51477 13.2304 4.40875 15.3887 6.00005 16.98L11.2701 22.26C11.363 22.3537 11.4736 22.4281 11.5955 22.4789C11.7173 22.5297 11.848 22.5558 11.9801 22.5558C12.1121 22.5558 12.2428 22.5297 12.3646 22.4789C12.4865 22.4281 12.5971 22.3537 12.6901 22.26L18.0001 16.93C19.5847 15.3453 20.4749 13.1961 20.4749 10.955C20.4749 8.71395 19.5847 6.56468 18.0001 4.98V4.98ZM16.5701 15.5L12.0001 20.09L7.43005 15.5C6.5272 14.5963 5.91253 13.4452 5.66375 12.1923C5.41497 10.9393 5.54324 9.64075 6.03236 8.46068C6.52147 7.28062 7.34947 6.27205 8.41168 5.56248C9.4739 4.85291 10.7226 4.47418 12.0001 4.47418C13.2775 4.47418 14.5262 4.85291 15.5884 5.56248C16.6506 6.27205 17.4786 7.28062 17.9677 8.46068C18.4569 9.64075 18.5851 10.9393 18.3364 12.1923C18.0876 13.4452 17.4729 14.5963 16.5701 15.5V15.5ZM9.00005 7.91C8.19277 8.71977 7.73945 9.81657 7.73945 10.96C7.73945 12.1034 8.19277 13.2002 9.00005 14.01C9.59981 14.6108 10.3636 15.0211 11.1957 15.1894C12.0278 15.3577 12.891 15.2766 13.6771 14.9562C14.4632 14.6357 15.1372 14.0903 15.6145 13.3883C16.0918 12.6862 16.3512 11.8589 16.3601 11.01C16.3646 10.4432 16.2554 9.88126 16.039 9.35739C15.8225 8.83352 15.5033 8.35836 15.1001 7.96C14.7037 7.55458 14.2311 7.23154 13.7095 7.00947C13.1878 6.7874 12.6274 6.67068 12.0605 6.66603C11.4935 6.66138 10.9313 6.7689 10.406 6.98239C9.8808 7.19588 9.40297 7.51113 9.00005 7.91V7.91ZM13.6901 12.59C13.3111 12.9747 12.8103 13.2159 12.2732 13.2723C11.7361 13.3286 11.1961 13.1966 10.7456 12.8989C10.295 12.6012 9.96185 12.1562 9.80306 11.6401C9.64427 11.1239 9.6697 10.5686 9.87501 10.0692C10.0803 9.56967 10.4528 9.15702 10.9286 8.90174C11.4045 8.64646 11.9543 8.56441 12.484 8.66962C13.0137 8.77483 13.4904 9.06076 13.8326 9.47853C14.1748 9.8963 14.3612 10.42 14.3601 10.96C14.3455 11.5773 14.0865 12.1635 13.6401 12.59H13.6901Z" fill="#767676"/>
</svg>
