<?xml version="1.0" encoding="utf-8"?>

<!DOCTYPE svg PUBLIC "-//W3C//DTD SVG 1.1//EN" "http://www.w3.org/Graphics/SVG/1.1/DTD/svg11.dtd">
<!-- Uploaded to: SVG Repo, www.svgrepo.com, Generator: SVG Repo Mixer Tools -->
<svg height="800px" width="800px" version="1.1" id="_x32_" xmlns="http://www.w3.org/2000/svg" xmlns:xlink="http://www.w3.org/1999/xlink" 
	 viewBox="0 0 512 512"  xml:space="preserve">
<style type="text/css">
	.st0{fill:#000000;}
</style>
<g>
	<path class="st0" d="M445.295,350.56c-0.803-1.333-1.712-3.242-2.606-5.583c-1.576-4.122-3.106-9.584-4.424-15.94
		c-2-9.538-3.546-21.098-4.576-33.606c-1.03-12.5-1.56-25.97-1.545-39.432c-0.015-24.182,1.698-48.432,4.955-67.001
		c1.621-9.257,3.652-17.113,5.788-22.507c1.06-2.69,2.136-4.743,2.984-5.97c0.41-0.614,0.758-1.015,0.955-1.212l0.151-0.144
		l36.546-21.09l-11.636-20.152l-36.546,21.091c-0.03,0.015-0.272,0.099-0.772,0.174c-0.53,0.092-1.303,0.16-2.288,0.16
		c-1.758,0-4.136-0.22-6.954-0.72c-5.288-0.94-12.03-2.841-19.576-5.546c-13.227-4.734-28.924-11.901-44.833-20.31
		c-23.864-12.599-48.304-28.061-66.319-42.198c-9-7.045-16.378-13.803-21.106-19.31c-2.378-2.735-4.06-5.16-4.954-6.872
		c-0.455-0.849-0.712-1.507-0.818-1.886c-0.06-0.174-0.076-0.281-0.091-0.319V0h-23.273v42.196c-0.016,0.114-0.212,0.94-0.909,2.213
		c-0.682,1.288-1.803,2.977-3.318,4.893c-2.848,3.599-7.076,7.962-12.318,12.614c-9.182,8.166-21.425,17.288-35.016,26.212
		c-20.364,13.409-43.788,26.462-64.772,36.008c-10.485,4.773-20.364,8.674-28.803,11.303c-4.212,1.319-8.061,2.319-11.394,2.97
		c-3.318,0.651-6.121,0.946-8.12,0.939c-1.197,0-2.092-0.106-2.591-0.212c-0.258-0.053-0.409-0.098-0.47-0.121l-36.53-21.091
		l-11.636,20.152l36.53,21.09c0.092,0.054,0.818,0.78,1.697,2.273c0.788,1.333,1.697,3.235,2.606,5.583
		c1.576,4.122,3.106,9.584,4.424,15.94c1.985,9.538,3.53,21.099,4.561,33.607c1.046,12.5,1.561,25.969,1.561,39.432
		c0,24.182-1.697,48.431-4.97,66.992c-1.621,9.265-3.652,17.121-5.788,22.515c-1.06,2.683-2.136,4.743-2.97,5.97
		c-0.424,0.606-0.773,1.015-0.97,1.212l-0.152,0.144l-36.53,21.09l11.636,20.152l36.53-21.098c0.152-0.068,1.243-0.341,3.061-0.326
		c1.757-0.008,4.151,0.219,6.954,0.719c5.288,0.933,12.045,2.842,19.59,5.546c13.227,4.734,28.909,11.894,44.818,20.303
		c23.864,12.606,48.318,28.061,66.318,42.204c9,7.045,16.394,13.803,21.122,19.311c2.364,2.734,4.046,5.159,4.939,6.863
		c0.455,0.856,0.727,1.515,0.833,1.894c0.046,0.159,0.06,0.258,0.076,0.302V512h23.273v-42.182c0-0.076,0.212-0.917,0.924-2.235
		c0.667-1.281,1.788-2.97,3.303-4.886c2.848-3.606,7.091-7.962,12.333-12.614c9.182-8.166,21.425-17.288,35.001-26.22
		c20.364-13.409,43.802-26.462,64.787-36.008c10.47-4.772,20.349-8.667,28.788-11.303c4.212-1.318,8.076-2.318,11.394-2.962
		c3.318-0.659,6.122-0.947,8.121-0.939c1.197-0.008,2.091,0.098,2.606,0.204c0.243,0.053,0.38,0.098,0.454,0.122l36.546,21.098
		l11.636-20.152l-36.53-21.09C446.901,352.787,446.174,352.068,445.295,350.56z M96.295,334.765
		c2.122-9.932,3.713-21.182,4.834-33.25c1.334-14.424,2-29.97,2-45.515c-0.015-25.288-1.728-50.508-5.318-71.015
		c-0.47-2.667-0.97-5.25-1.5-7.743l53.53,30.902c0.136,0.235,0.303,0.553,0.469,0.962c0.682,1.5,1.531,4.069,2.243,7.258
		c1.106,4.802,2.016,11.015,2.606,17.848c0.591,6.841,0.909,14.31,0.909,21.788c0,12.719-0.909,25.507-2.591,35.03
		c-0.818,4.734-1.863,8.667-2.818,11.038c-0.319,0.811-0.606,1.41-0.818,1.788L96.295,334.765z M334.522,287.902L279.265,256
		l55.257-31.909c-0.288,2.273-0.546,4.591-0.773,6.977c-0.742,7.939-1.091,16.432-1.091,24.932
		C332.659,267.068,333.265,278.068,334.522,287.902z M150.841,303.272L150.841,303.272L150.841,303.272L150.841,303.272z
		 M177.461,287.902c0.288-2.273,0.561-4.584,0.773-6.977c0.742-7.932,1.106-16.424,1.106-24.924
		c-0.014-11.068-0.621-22.069-1.879-31.909L232.719,256L177.461,287.902z M267.629,235.848v-63.803c2.848,2.167,5.848,4.326,9,6.478
		c11.985,8.166,25.849,16.083,38.803,22.128c2.545,1.182,5.015,2.265,7.47,3.288L267.629,235.848z M244.356,235.848l-55.258-31.901
		c6.106-2.553,12.485-5.614,18.939-9.015c12.879-6.81,25.804-14.902,36.319-22.902V235.848z M244.356,276.151v63.796
		c-2.834-2.16-5.848-4.319-9-6.47c-11.984-8.167-25.848-16.084-38.802-22.136c-2.531-1.174-5.015-2.258-7.455-3.28L244.356,276.151z
		 M267.629,276.151l55.257,31.901c-6.09,2.546-12.484,5.606-18.924,9.008c-12.894,6.818-25.818,14.901-36.333,22.909V276.151z
		 M362.144,303.848c-0.122-0.227-0.288-0.546-0.47-0.954c-0.682-1.508-1.515-4.076-2.242-7.265c-1.106-4.796-2-11.008-2.607-17.841
		c-0.59-6.842-0.894-14.318-0.894-21.788c-0.016-12.728,0.909-25.516,2.576-35.031c0.818-4.734,1.879-8.666,2.818-11.038
		c0.318-0.811,0.621-1.41,0.818-1.788l53.545-30.909c-2.121,9.932-3.712,21.174-4.833,33.25c-1.334,14.424-1.985,29.962-2,45.515
		c0.015,25.28,1.727,50.5,5.318,71.015c0.47,2.666,0.97,5.242,1.515,7.742L362.144,303.848z M304.371,106.227
		c21.561,14.348,46.198,28.19,68.894,38.606c10.864,4.977,21.258,9.158,30.788,12.25l-53.53,30.909
		c-0.546-0.008-1.485-0.084-2.697-0.303c-2.409-0.417-5.788-1.356-9.636-2.742c-6.758-2.416-15-6.166-23.363-10.592
		c-12.546-6.621-25.47-14.803-34.788-22.12c-4.651-3.637-8.394-7.099-10.576-9.644c-0.924-1.068-1.531-1.947-1.833-2.447V78.31
		C277.72,87.416,290.371,96.909,304.371,106.227z M114.098,154.992c14.681-5.273,31.166-12.833,47.848-21.636
		c25-13.22,50.289-29.167,69.804-44.47c4.545-3.568,8.758-7.091,12.606-10.568v61.826c-0.182,0.296-0.454,0.712-0.833,1.227
		c-1.136,1.5-3.136,3.636-5.727,5.97c-4.561,4.122-10.94,8.932-18.092,13.666c-10.727,7.107-23.242,14.106-34.333,19.167
		c-5.53,2.538-10.712,4.591-15.016,5.932c-2.136,0.674-4.06,1.175-5.621,1.477c-1.485,0.296-2.636,0.402-3.258,0.41l-53.53-30.909
		C109.962,156.432,112.007,155.735,114.098,154.992z M65.113,159.227L65.113,159.227L65.113,159.227L65.113,159.227z
		 M76.749,372.924L76.749,372.924L76.749,372.924L76.749,372.924z M207.628,405.772c-21.575-14.348-46.212-28.19-68.909-38.606
		c-10.848-4.984-21.242-9.166-30.788-12.25l53.546-30.908c0.545,0,1.485,0.075,2.682,0.296c2.409,0.424,5.788,1.363,9.637,2.742
		c6.772,2.424,15,6.174,23.363,10.59c12.546,6.621,25.47,14.811,34.788,22.128c4.651,3.637,8.394,7.099,10.576,9.644
		c0.924,1.068,1.53,1.947,1.833,2.447v61.826C234.265,424.583,221.613,415.083,207.628,405.772z M397.901,357.008
		c-14.696,5.265-31.181,12.833-47.848,21.636c-25,13.22-50.303,29.167-69.818,44.47c-4.53,3.568-8.743,7.083-12.606,10.568v-61.826
		c0.182-0.303,0.454-0.719,0.849-1.227c1.121-1.5,3.121-3.636,5.726-5.97c4.546-4.128,10.94-8.939,18.076-13.666
		c10.727-7.106,23.242-14.106,34.334-19.174c5.53-2.538,10.727-4.583,15.015-5.932c2.136-0.667,4.061-1.167,5.622-1.47
		c1.485-0.303,2.636-0.409,3.258-0.409l53.53,30.902C402.038,355.56,399.977,356.265,397.901,357.008z"/>
</g>
</svg>